<svg width="52" height="52" viewBox="0 0 52 52" fill="none" xmlns="http://www.w3.org/2000/svg">
<path d="M25.6531 0.0158381C26.0905 0.013819 26.5276 0.00731655 26.9649 0.000716261C28.8566 -0.0142931 30.6075 0.206258 32.4419 0.693867C32.6146 0.739723 32.7873 0.785578 32.9653 0.832824C39.4607 2.6792 45.2226 7.12097 48.5293 13.0398C49.9173 15.5894 50.8625 18.1499 51.4543 20.9914C51.5119 21.2597 51.5119 21.2597 51.5708 21.5334C52.6084 26.7119 51.6962 31.9195 49.5739 36.6854C49.4646 36.9387 49.3552 37.192 49.2426 37.4529C46.4037 43.5903 40.987 48.1047 34.7401 50.4438C29.5722 52.1967 24.3647 52.5329 19.0706 51.1238C18.9322 51.088 18.7937 51.0522 18.6511 51.0152C15.2906 50.1141 12.1149 48.3341 9.45996 46.1018C9.28086 45.9515 9.10177 45.8013 8.91724 45.6465C4.2365 41.5671 0.526279 35.554 0.080898 29.2129C0.0286469 28.1075 0.0136656 27.0022 0.00601889 25.8958C0.00403266 25.6606 0.00204642 25.4253 0 25.183C0.0268162 18.3631 2.90145 12.2803 7.51433 7.36381C12.5357 2.58045 18.7442 0.0350371 25.6531 0.0158381ZM20.5331 4.04191C20.299 4.09775 20.065 4.15359 19.8239 4.21112C14.5882 5.53532 9.80273 9.17043 6.91366 13.7199C5.03081 16.9516 3.49061 20.5377 3.40108 24.3395C3.39058 24.5671 3.38007 24.7948 3.36925 25.0293C3.21906 30.7333 5.12881 36.6616 9.04211 40.8704C9.18224 41.0236 9.18224 41.0236 9.3252 41.1799C12.3298 44.4392 16.0403 46.6558 20.3242 47.7758C20.5183 47.8381 20.7125 47.9004 20.9126 47.9646C26.1536 49.4813 32.0863 48.2357 36.7833 45.6851C38.0725 44.9545 39.257 44.1361 40.3811 43.1722C40.5527 43.0282 40.7243 42.8841 40.901 42.7357C43.5921 40.4044 45.518 37.4665 46.8579 34.1743C46.9327 33.9947 47.0076 33.8151 47.0848 33.63C49.1809 28.2789 48.8217 22.1719 46.5967 16.9241C45.4663 14.4352 43.9554 12.2805 42.0526 10.3195C41.8966 10.1479 41.7407 9.97639 41.58 9.79964C38.6169 6.64061 34.5811 4.65598 30.3526 3.83266C30.2033 3.79802 30.0539 3.76337 29.9 3.72768C28.5607 3.42953 27.283 3.34092 25.913 3.34876C25.7021 3.34964 25.4912 3.35052 25.274 3.35142C23.6123 3.37649 22.1357 3.58586 20.5331 4.04191Z" fill="url(#paint0_linear_2105_20)"/>
<path fill-rule="evenodd" clip-rule="evenodd" d="M20.8517 10.0266L21.5584 10.0183L22.3187 10.0203L23.1026 10.0168C23.6497 10.0156 24.1967 10.0159 24.7438 10.0176C25.3345 10.019 25.925 10.0164 26.5156 10.0125L27.2551 10.0068C27.7865 10.0063 28.318 10.0066 28.8494 10.0071L29.6085 10C30.7017 10.0093 31.1044 10.0127 31.4663 10.136C31.6773 10.2078 31.8744 10.3206 32.1865 10.4988C32.666 11.075 32.8174 11.5691 32.9996 12.2932C33.4503 13.8799 33.9693 14.9424 35.4173 15.7993C36.2488 16.1169 37.0832 16.1179 37.9635 16.1189H38.0419C38.834 16.231 39.1728 16.5032 39.7414 17.051C41.1673 19.8921 39.424 25.2539 38.4456 28.2634L38.3153 28.6648C37.1741 31.9785 35.6557 34.9556 33.4086 37.6597L32.9633 38.2078C31.2355 40.2336 28.571 42.6758 25.9279 43.2983C22.4121 42.4995 18.876 38.5735 16.9902 35.6809C13.923 30.8079 12.0837 25.1711 12.0221 19.4038L12.0035 18.8127C11.9954 17.9417 11.9923 17.6104 12.1008 17.3208C12.1362 17.2263 12.1836 17.1362 12.2465 17.0334C12.302 16.9429 12.3695 16.8423 12.4517 16.72C12.9724 16.3953 13.3286 16.2869 13.9352 16.21C15.4792 15.9453 16.7209 15.4138 17.7233 14.1777C18.1773 13.3679 18.3762 12.4827 18.578 11.5845L18.6205 11.3962C19.0149 10.2378 19.6807 10.033 20.8517 10.0266ZM21.7362 13.6492H29.4829L30.3204 15.5244C30.593 16.0142 30.8699 16.502 31.1579 16.9829L30.5977 17.5786C29.2213 19.0435 27.8502 20.5125 26.4904 21.9924C25.8891 22.647 25.285 23.2986 24.6805 23.95L24.3644 24.2908L23.0928 25.6602C21.59 27.2788 20.0909 28.9006 18.5957 30.5264C17.9243 30.0088 17.6855 29.2944 17.4307 28.532L17.3525 28.2996L17.1884 27.8276C16.6523 26.25 16.2406 24.6499 15.8738 23.0254L15.7479 22.4922C15.6471 21.8774 15.6445 21.2908 15.6514 20.6682L15.6571 19.9937L15.6645 19.4832L16.0562 19.3523C18.1899 18.5798 19.661 17.415 20.8987 15.5244L21.7362 13.6492ZM36.6316 19.75L34.2549 19.1228C33.8231 19.5405 33.4086 19.9714 32.9948 20.4058L32.3128 21.1221L31.9541 21.4985C31.3873 22.0935 30.8202 22.6885 30.2528 23.283L29.6104 23.9563L28.3095 25.3196C27.1648 26.5186 26.0212 27.7183 24.883 28.9226C24.5515 29.2739 24.2198 29.6245 23.8859 29.9734C23.6837 30.1846 23.4807 30.395 23.2765 30.6045L22.8616 31.0281L22.0336 31.8757L21.6353 32.2783L21.263 32.6597C20.796 33.134 20.4922 33.5786 20.2105 34.1755C21.6572 35.978 23.6542 38.2131 25.8283 39.1929C26.0817 39.1387 26.2159 39.1101 26.3434 39.0632C26.4868 39.0107 26.6218 38.9353 26.9086 38.7749C31.1043 35.9207 34.1121 31.5298 35.4264 26.7446L35.5513 26.231C36.0967 24.085 36.3983 21.9438 36.6316 19.75Z" fill="url(#paint1_linear_2105_20)"/>
<defs>
<linearGradient id="paint0_linear_2105_20" x1="26" y1="0" x2="26" y2="52" gradientUnits="userSpaceOnUse">
<stop stop-color="#0E702E"/>
<stop offset="1" stop-color="#193F18"/>
</linearGradient>
<linearGradient id="paint1_linear_2105_20" x1="26.1404" y1="10" x2="26.1404" y2="43.2982" gradientUnits="userSpaceOnUse">
<stop stop-color="#0E702E"/>
<stop offset="1" stop-color="#193F18"/>
</linearGradient>
</defs>
</svg>
